<svg xmlns="http://www.w3.org/2000/svg" xmlns:xlink="http://www.w3.org/1999/xlink" width="48" height="48" viewBox="0 0 48 48"><defs><style>.a{fill:url(#a);}.b{fill:url(#b);}.c{fill:url(#c);}.d{fill:url(#d);}.e{fill:url(#e);}.f{fill:none;}</style><linearGradient id="a" x1="0.5" y1="-0.285" x2="0.5" y2="1.161" gradientUnits="objectBoundingBox"><stop offset="0" stop-color="#ff9757"/><stop offset="1" stop-color="#ffb65b"/></linearGradient><linearGradient id="b" x1="0.5" y1="-1.032" x2="0.5" y2="0.277" gradientUnits="objectBoundingBox"><stop offset="0" stop-color="#f9af70"/><stop offset="1" stop-color="#ffb37b"/></linearGradient><linearGradient id="c" x1="0.5" y1="-2.801" x2="0.5" y2="-0.311" gradientUnits="objectBoundingBox"><stop offset="0" stop-color="#ff8b67"/><stop offset="0.847" stop-color="#ffa76a"/><stop offset="1" stop-color="#ffad6b"/></linearGradient><linearGradient id="d" x1="0.014" y1="445.124" x2="0.014" y2="444.3" gradientUnits="objectBoundingBox"><stop offset="0" stop-color="#ffa241"/><stop offset="0.926" stop-color="#ffaf6c"/><stop offset="1" stop-color="#ffb070"/></linearGradient><linearGradient id="e" x1="-0.712" y1="908.509" x2="-0.712" y2="909.67" gradientUnits="objectBoundingBox"><stop offset="0" stop-color="#9097a2"/><stop offset="0.278" stop-color="#7c8390"/><stop offset="0.733" stop-color="#616876"/><stop offset="1" stop-color="#575e6d"/></linearGradient></defs><g transform="translate(-0.899 -1.775)"><path class="a" d="M42.595,43.089a2.086,2.086,0,0,1,.037.606,2.965,2.965,0,0,1-2.953,2.654H12.968a2.967,2.967,0,0,1-2.53-1.412,2.463,2.463,0,0,1-.111-2.284l1.907-4.265a6.278,6.278,0,0,0,.423-3.481l-1.669-9.993-.742-4.435L10,19H42.647l-2.389,6.527a6.248,6.248,0,0,0-.275,3.26l.913,5Z" transform="translate(-1.07 -2.574)"/><path class="b" d="M26.347,23.217a2.214,2.214,0,0,1-2.217,2.217H17.478a2.218,2.218,0,0,0-2.21,2.38A2.3,2.3,0,0,0,17.6,29.87H19.7a2.218,2.218,0,0,1,2.21,2.38A2.3,2.3,0,0,1,19.569,34.3h-.613a2.218,2.218,0,0,0-2.21,2.38,2.3,2.3,0,0,0,2.336,2.055H19.7a2.218,2.218,0,0,1,2.21,2.38,2.3,2.3,0,0,1-2.336,2.055H10.411l1.9-4.265.281-.636a3.681,3.681,0,0,0,.266-2.107l-.126-.739-1.663-9.993L10.33,21h13.8a2.221,2.221,0,0,1,2.217,2.217Z" transform="translate(-1.156 -3.096)"/><path class="c" d="M48.522,48.609a2.956,2.956,0,0,1-2.957,2.957H35.217A2.22,2.22,0,0,1,33.044,48.9a2.281,2.281,0,0,1,2.269-1.774h4.708a1.848,1.848,0,1,0,0-3.7h-.37a2.22,2.22,0,0,1-2.173-2.661A2.281,2.281,0,0,1,39.748,39h7.029Z" transform="translate(-6.945 -7.791)"/><path class="d" d="M41.744,16.9,8.48,18.634a2.245,2.245,0,0,1-2.384-2.1L5.9,12.848a2.243,2.243,0,0,1,2.151-2.333L41.317,8.778a2.245,2.245,0,0,1,2.384,2.1l.194,3.691A2.245,2.245,0,0,1,41.744,16.9Z"/><path class="e" d="M33.722,31.17l-7.381.387a2.224,2.224,0,0,1-2.331-2.1h0a2.224,2.224,0,0,1,2.1-2.331l7.381-.387a2.224,2.224,0,0,1,2.331,2.1h0A2.224,2.224,0,0,1,33.722,31.17Z" transform="translate(-4.66 -4.645)"/></g><rect class="f" width="48" height="48"/></svg>